<?xml version="1.0" encoding="UTF-8" standalone="no"?>
<svg width="210mm" height="297mm" viewBox="0 0 210 297" version="1.1" id="svg8" inkscape:version="1.1.2 (b8e25be8, 2022-02-05)" sodipodi:docname="football.svg" inkscape:export-filename="/Users/ksergi/Desktop/football.png" inkscape:export-xdpi="96" inkscape:export-ydpi="96" xmlns:inkscape="http://www.inkscape.org/namespaces/inkscape" xmlns:sodipodi="http://sodipodi.sourceforge.net/DTD/sodipodi-0.dtd" xmlns="http://www.w3.org/2000/svg" xmlns:svg="http://www.w3.org/2000/svg" xmlns:rdf="http://www.w3.org/1999/02/22-rdf-syntax-ns#" xmlns:cc="http://creativecommons.org/ns#" xmlns:dc="http://purl.org/dc/elements/1.1/">
  <defs id="defs2">
    <inkscape:path-effect effect="spiro" id="path-effect899" is_visible="true" lpeversion="1"/>
    <inkscape:path-effect effect="spiro" id="path-effect895" is_visible="true" lpeversion="1"/>
  </defs>
  <sodipodi:namedview id="base" pagecolor="#ffffff" bordercolor="#666666" borderopacity="1.0" inkscape:pageopacity="0.0" inkscape:pageshadow="2" inkscape:zoom="0.3190896" inkscape:cx="325.92726" inkscape:cy="443.44911" inkscape:document-units="mm" inkscape:current-layer="layer1" inkscape:document-rotation="0" showgrid="false" inkscape:snap-nodes="false" inkscape:window-width="1252" inkscape:window-height="727" inkscape:window-x="0" inkscape:window-y="25" inkscape:window-maximized="0" inkscape:pagecheckerboard="0"/>
  <metadata id="metadata5">
    <rdf:RDF>
      <cc:Work rdf:about="">
        <dc:format>image/svg+xml</dc:format>
        <dc:type rdf:resource="http://purl.org/dc/dcmitype/StillImage"/>
        <dc:title/>
      </cc:Work>
    </rdf:RDF>
  </metadata>
  <g inkscape:label="Layer 1" inkscape:groupmode="layer" id="layer1">
    <path id="path863" style="fill:#1a1a1a;stroke-width:0.264583" d="m 115.20703,78.927734 c -16.382726,0.255977 -32.769698,4.939651 -46.499815,13.954078 -9.914953,6.443773 -18.344743,15.009308 -25.19159,24.616238 -0.390306,0.56342 -0.982209,0.96915 -1.416016,1.46484 -1.196651,2.8455 -3.076878,5.32878 -4.473401,8.07259 -4.613899,8.44932 -8.25329,17.55791 -9.690511,27.11658 -0.458706,3.72295 -0.49873,7.51025 -0.07046,11.23661 0.422348,2.38176 1.224208,4.80895 2.828125,6.66211 0.631902,0.45255 0.8082,1.24148 1.44336,1.6875 2.817979,2.36906 6.225888,3.92877 9.676922,5.14057 4.782901,1.62261 9.788545,2.52214 14.805692,3.01807 4.047548,0.2428 8.108786,0.22388 12.16224,0.17754 8.101763,0.10918 13.868784,-1.02285 20.947236,-3.09563 18.519328,-4.79367 35.367898,-15.80554 47.147518,-30.88425 0.95569,-1.19916 1.99866,-2.32458 3.12003,-3.36417 0.74216,-0.90705 1.40019,-1.91081 1.92254,-2.95133 0.0528,-0.54972 0.72886,-0.6907 0.83053,-1.24716 0.21013,-0.79836 0.49416,-1.55884 0.95558,-2.25226 1.97811,-3.51613 3.91191,-7.06461 5.41464,-10.81568 3.17511,-7.6833 5.33952,-15.9122 5.32996,-24.26826 -0.0393,-4.530825 -0.79553,-9.304992 -3.51789,-13.050261 -1.52943,-1.961771 -3.52045,-3.500855 -5.46545,-5.023142 -1.28929,-0.741396 -2.71339,-1.215304 -4.05611,-1.852786 -8.0102,-3.347912 -16.77273,-4.424088 -25.39883,-4.343757 -0.2681,6.54e-4 -0.5362,0.0013 -0.8043,0.002 z" sodipodi:nodetypes="cccccccccccccccccccccccccc"/>
    <path id="path887" style="fill:#803300;stroke-width:0.999999" d="M 456.38281 305.57227 C 455.89688 305.57502 455.46999 305.5907 455.11133 305.61719 L 450.88086 305.92969 L 463.20703 316.54883 L 475.5332 327.16992 L 484.08789 324.16406 C 491.24227 321.65041 494.27954 321.13908 502.64258 321.04297 C 508.14255 320.97985 517.36757 321.26822 523.14258 321.68359 C 530.65197 322.22369 533.14481 322.13751 531.89258 321.38281 C 528.48378 319.32807 506.50003 312.60385 496.34766 310.50977 C 484.52492 308.07116 463.67187 305.53102 456.38281 305.57227 z M 373.95117 312.07031 L 363.79688 314.3418 C 350.35684 317.34803 324.55658 325.93109 309.64258 332.35742 C 271.59272 348.75275 235.78001 374.01547 205.44141 405.86133 C 190.05468 422.01246 167.51364 450.60353 168.67969 452.49023 C 168.95053 452.92847 175.80383 458.66689 183.9082 465.24414 C 192.01258 471.82143 200.44258 478.78884 202.64258 480.72656 L 206.64258 484.25 L 223.14258 468.11133 C 232.21758 459.23503 239.82693 451.85296 240.05273 451.70703 C 240.91706 451.14838 236.48489 447.13417 233.08789 445.40039 C 229.85482 443.75025 229.44088 443.731 228.52344 445.18555 C 227.22604 447.24233 224.14258 446.13731 224.14258 443.61523 C 224.14258 442.5832 225.03017 440.93512 226.11523 439.95312 C 228.89719 437.43551 233.30236 438.55395 239.73438 443.41016 L 244.98242 447.37109 L 250.5625 442.77734 C 253.63175 440.25054 256.14258 437.84926 256.14258 437.44141 C 256.14258 436.57589 249.33901 431.85855 247.14258 431.20117 C 246.31758 430.95437 245.14507 431.42861 244.53711 432.25391 C 242.94886 434.40948 240.14258 432.96779 240.14258 429.99609 C 240.14258 424.21731 247.42364 424.25276 255.90234 430.07422 L 261.16406 433.68555 L 264.90234 431.03125 C 266.95918 429.57137 269.99258 427.25438 271.64258 425.88086 L 274.64258 423.38281 L 272.14258 421.43359 C 270.76758 420.36112 268.29258 418.80981 266.64258 417.98633 C 264.00538 416.67015 263.50917 416.66597 262.5332 417.95898 C 261.92256 418.76746 260.73169 419.42969 259.88867 419.42969 C 255.6192 419.42969 258.03371 412.12076 262.47266 411.60742 C 265.61632 411.24383 272.36342 414.40108 276.21875 418.03906 L 278.79297 420.46875 L 285.71875 415.28711 C 289.52745 412.43761 292.83116 409.95208 293.0625 409.76367 C 293.79852 409.16424 288.75124 404.29631 285.80469 402.76367 C 283.23649 401.42784 282.84641 401.45272 281.69922 403.02148 C 280.18443 405.09312 277.14258 404.26998 277.14258 401.78906 C 277.14258 399.24075 280.13555 396.42969 282.84766 396.42969 C 285.95046 396.42969 290.33536 398.72972 294.95312 402.7793 L 298.64258 406.01562 L 306.31055 400.82812 C 313.5246 395.94751 313.89374 395.5206 312.56055 393.61719 C 311.78117 392.50446 309.57235 390.62142 307.65039 389.43359 C 304.50857 387.49186 304.00136 387.42831 302.62109 388.80859 C 300.62485 390.80483 298.14258 389.8144 298.14258 387.02148 C 298.14258 384.03335 299.98238 382.42969 303.4082 382.42969 C 307.20563 382.42969 309.79387 383.84615 314.80664 388.66992 L 318.97266 392.67773 L 326.55664 387.95117 C 330.72865 385.35086 334.14258 382.8705 334.14258 382.44141 C 334.14258 382.01235 332.30356 380.00065 330.05664 377.9707 C 326.29895 374.57585 325.87135 374.4199 324.70312 376.01758 C 323.01474 378.32657 320.14258 377.15672 320.14258 374.16016 C 320.14258 367.10064 329.11147 368.07558 335.96289 375.87891 C 337.67774 377.83201 339.34077 379.42969 339.6582 379.42969 C 339.97565 379.42969 343.81021 377.36796 348.17969 374.84766 C 355.06756 370.87473 355.99443 370.01913 355.14062 368.42383 C 353.04609 364.51013 346.14258 360.67883 346.14258 363.42969 C 346.14258 364.87751 342.4443 364.66039 341.88086 363.17969 C 341.02922 360.9413 342.99952 357.50453 345.49219 356.87891 C 348.63474 356.09019 352.62376 358.21214 357.53906 363.28906 L 361.43555 367.31445 L 366.03906 364.96484 C 368.57084 363.673 372.39192 361.42172 374.5293 359.96094 C 376.66667 358.50019 382.74166 355.56033 388.0293 353.42773 C 404.92205 346.61453 411.64293 343.56823 411.61719 342.73828 C 411.59073 341.92504 394.97544 328.20798 381.29688 317.70898 L 373.95117 312.07031 z M 511.14258 325.95508 C 493.7346 325.98153 492.27524 326.13071 486.41406 328.49609 L 480.18555 331.00977 L 489.75391 340.46875 C 514.43789 364.86885 536.72 398.09788 546.20703 424.6582 C 548.0692 429.87157 548.87368 431.11121 549.7793 430.1582 C 550.42231 429.48155 553.66042 423.75274 556.97461 417.42773 C 564.12355 403.78432 566.7374 396.38444 569.16016 382.92773 C 572.74402 363.02175 572.75782 360.33813 569.30469 352.95898 C 565.86883 345.61669 558.54209 337.31884 550.80664 332.00781 C 543.91218 327.27422 535.03891 325.92004 511.14258 325.95508 z M 416.30078 347.42773 C 412.60448 347.42773 364.14258 369.7143 364.14258 371.41406 C 364.14258 371.85215 365.03318 374.17277 366.12109 376.57031 C 368.95132 382.8076 368.80639 388.94688 365.7832 390.92773 C 364.48571 391.7779 362.68571 392.19007 361.7832 391.84375 C 359.72834 391.05523 359.61288 387.42773 361.64258 387.42773 C 363.73527 387.42773 363.52181 384.1796 361.05078 378.43555 L 358.95898 373.57227 L 351.30078 378.08008 C 347.08907 380.55926 343.29318 382.92408 342.86523 383.33594 C 342.43729 383.74779 342.9904 386.07381 344.09375 388.50586 C 346.32853 393.43179 346.78725 401.38464 344.94336 403.22852 C 343.19898 404.97292 339.18372 404.69731 338.44922 402.7832 C 338.07539 401.80903 338.49569 400.6439 339.48047 399.92383 C 341.63761 398.34648 341.55145 395.92512 339.15039 390.63477 L 337.20117 386.3418 L 330.92188 390.4082 C 327.46809 392.64413 323.98459 394.87155 323.17969 395.35938 C 321.92488 396.11989 322.02331 396.93729 323.87695 401.08789 C 326.94453 407.95665 327.32377 409.82504 326.22656 412.71094 C 324.96564 416.0274 321.45704 417.17609 319.28125 414.98438 C 317.76253 413.45454 317.80696 413.20874 319.87695 411.63086 L 322.10938 409.92773 L 319.62109 404.56641 L 317.13086 399.20508 L 314.38672 400.98828 C 312.87729 401.96877 309.33467 404.29763 306.51367 406.16211 L 301.38477 409.55078 L 304.24609 414.74023 C 308.73214 422.87612 307.91407 429.42773 302.41211 429.42773 C 299.35683 429.42773 298.25542 426.55022 300.64258 424.80469 C 302.4063 423.51504 302.40645 423.3394 300.65039 419.44531 C 297.59469 412.669 296.99127 412.6093 289.24805 418.34961 L 282.31836 423.48828 L 285.73047 428.55859 C 291.09337 436.52784 290.14104 443.42773 283.67773 443.42773 C 281.23969 443.42773 280.53016 440.34836 282.61719 438.82227 C 284.15726 437.69616 284.24644 437.10511 283.23047 434.71875 C 282.57737 433.18468 281.0538 430.73425 279.84375 429.27539 L 277.64258 426.62305 L 270.94922 431.90625 L 264.25586 437.18945 L 267.05078 441.05859 C 272.77582 448.98468 272.99342 455.67403 267.57031 457.03516 C 263.95259 457.94315 261.28676 454.07874 264.64258 452.79102 C 266.89758 451.92565 266.47214 449.76668 263.07031 444.82227 L 259.99805 440.35742 L 254.07031 445.49219 C 250.81033 448.31636 248.14258 450.76107 248.14258 450.92578 C 248.14258 451.09057 249.49258 453.79103 251.14258 456.92773 C 255.82073 465.82104 254.97084 471.42773 248.94336 471.42773 C 246.83381 471.42773 246.14258 470.94788 246.14258 469.47852 C 246.14258 468.40585 246.90651 467.10046 247.83984 466.57812 C 249.42699 465.6899 249.41716 465.36351 247.68555 461.52344 C 246.66725 459.26528 245.23397 456.91774 244.5 456.30859 C 242.849 454.9384 241.16639 456.38769 223.75195 474.18945 L 210.86328 487.36719 L 223.04688 499.04102 C 245.43586 520.49089 257.00834 536.99067 270.79102 567.11328 C 280.3072 587.91127 283.96539 596.81354 288.79297 610.92773 C 290.67418 616.42774 292.39883 621.47012 292.62695 622.13086 C 292.9337 623.01931 294.55226 622.83788 298.8418 621.43945 C 302.03182 620.39948 315.84664 615.87071 329.53906 611.375 C 384.61323 593.29223 404.31749 582.44743 443.14258 548.84766 C 464.30015 530.53755 512.14258 486.33811 512.14258 485.10156 C 512.14258 484.60289 509.85987 478.95853 507.07031 472.56055 C 498.35136 452.56307 473.21841 412.09162 462.27539 400.42773 C 458.92132 396.85275 456.16972 393.6201 456.16016 393.24219 C 456.12236 391.79047 440.9678 371.47147 433.90039 363.39844 C 426.51546 354.96261 418.21345 347.42773 416.30078 347.42773 z M 575.82422 373.92773 L 574.5957 381.42773 C 571.8518 398.18986 568.38054 407.32015 556.77539 428.2793 L 551.04297 438.63086 L 553.0332 446.7793 C 554.12768 451.26136 555.82679 458.86522 556.80859 463.67773 C 557.79044 468.49021 558.8996 472.42773 559.27344 472.42773 C 559.64723 472.42773 562.20463 465.56522 564.95703 457.17773 C 573.73502 430.42794 578.1215 402.69392 576.5957 383.58984 L 575.82422 373.92773 z M 514.14258 491.44727 C 513.86743 491.45029 502.61758 501.61506 489.14258 514.03516 C 410.59957 586.42921 398.35556 594.17128 323.4375 618.81055 C 309.0247 623.55068 296.59537 627.42773 295.81641 627.42773 C 294.76915 627.42773 296.32029 633.3554 301.76953 650.17773 C 310.71365 677.78911 309.81692 675.4303 311.36133 675.41602 C 312.06609 675.40846 318.26758 674.09563 325.14258 672.49609 C 402.00887 654.61254 468.47105 612.14687 514.29102 551.63867 C 518.335 546.29835 522.27102 541.2684 523.03906 540.46094 C 523.8071 539.65344 525.20005 537.28504 526.13477 535.19727 C 527.77338 531.5374 527.7518 531.12288 525.51953 523.66406 C 522.21668 512.62803 514.7346 491.4411 514.14258 491.44727 z M 136.74023 507.60352 C 136.65805 507.61451 136.59231 507.64598 136.54297 507.69531 C 135.35867 508.87963 127.9061 527.1391 124.09375 538.19531 C 119.89976 550.35832 116.23097 563.89911 113.53711 577.16797 C 111.36745 587.85481 110.56237 614.05363 112.11914 623.2832 C 112.79408 627.2847 113.4753 630.41755 113.63477 630.24414 C 113.79422 630.07066 115.76441 624.71341 118.01172 618.33984 C 127.0427 592.72719 135.21677 576.63153 152.45508 550.51953 L 164.60938 532.10938 L 154.12695 522.19336 C 142.98078 511.65167 137.97301 507.43855 136.74023 507.60352 z M 167.89062 536.45312 C 167.84716 536.45074 167.81601 536.46115 167.79492 536.48438 C 165.64137 538.85644 144.30446 572.17149 140.82812 578.58984 C 133.42555 592.25722 116.69083 633.64501 116.92188 637.71484 C 116.97762 638.69703 117.98651 641.05951 119.16406 642.96484 L 121.30664 646.42773 L 148.97461 646.41016 C 164.19225 646.39882 180.91758 645.95819 186.14258 645.42773 L 186.14258 645.42969 C 203.23635 643.69424 235.14258 639.01921 235.14258 638.25 C 235.14258 637.83633 232.19248 631.0767 228.58594 623.22852 C 215.93528 595.69938 203.77847 575.65521 189.23242 558.3418 C 181.10938 548.67335 169.23808 536.52705 167.89062 536.45312 z M 237.78711 643.77734 C 237.70781 643.69419 228.64258 644.90125 217.64258 646.45898 C 188.43299 650.59537 177.37343 651.41869 150.64258 651.44727 L 126.64258 651.47461 L 129.14258 653.48047 C 134.1095 657.46666 144.83332 663.24829 154.07031 666.92188 C 170.35441 673.39813 187.48383 677.12933 217.64258 680.76758 C 222.7905 681.38859 254.14258 681.46086 254.14258 680.85156 L 254.14258 680.84961 C 254.14258 680.35589 238.19197 644.20129 237.78711 643.77734 z " transform="scale(0.26458333)"/>
    <path id="path879" style="fill:#ffffff;stroke-width:0.999999" d="M 442.64258 305.23828 L 425.64258 305.79102 C 411.31201 306.25699 382.76639 309.47189 381.47266 310.76562 C 381.25987 310.97841 387.28728 316.0504 394.86523 322.03906 C 414.31279 337.40802 429.56209 350.91239 437.20312 359.5293 C 449.8667 373.81013 472.12979 403.26443 482.91992 420.01367 C 503.77263 452.38272 510.571 465.54734 519.79297 491.42773 C 522.83069 499.95276 525.67522 507.37774 526.11523 507.92773 C 526.83505 508.82749 531.11182 524.25861 531.16602 526.15234 C 531.21402 527.82698 535.37697 521.36341 541.94141 509.42773 C 545.72252 502.5527 550.38315 493.55271 552.29688 489.42773 L 555.77539 481.92773 L 551.98242 464.92773 C 542.42396 422.09042 527.51385 391.28489 502.18164 362.03516 C 491.40651 349.59367 472.35845 330.92236 456.14258 316.90625 L 442.64258 305.23828 z M 165.36133 457.42773 C 163.67345 457.42773 149.96032 479.85551 142.1543 495.38086 L 138.91016 501.83203 L 141.77734 504.25 C 143.35375 505.58028 149.89021 511.56504 156.30469 517.54883 C 162.71917 523.53261 168.4726 528.42773 169.08789 528.42773 C 169.70317 528.42773 170.49265 529.21524 170.84375 530.17773 C 171.19487 531.14023 175.90294 536.54538 181.30664 542.1875 C 191.73258 553.07348 200.65385 563.87362 207.28516 573.63867 C 217.30604 588.39508 238.69459 628.67964 237.55664 630.6543 C 237.15277 631.3551 237.19208 631.59363 237.64453 631.18359 C 238.59349 630.32345 240.61924 634.53315 246.6582 649.92773 C 249.03149 655.97774 252.18961 663.62775 253.67773 666.92773 C 255.16586 670.22775 257.23893 674.89904 258.2832 677.30664 L 260.18164 681.68359 L 268.41211 681.01758 C 272.9391 680.65134 282.26758 679.66881 289.14258 678.83398 C 296.01758 677.99916 302.37101 677.10388 303.26172 676.8457 C 304.6401 676.44613 303.49343 672.02572 295.55664 647.15234 C 284.63457 612.92332 279.14016 597.72904 272.07812 582.22266 C 269.24936 576.01142 264.95123 566.52862 262.52734 561.15039 C 251.45301 536.57813 235.53519 516.26606 209.14258 493.0293 C 194.40918 480.05762 166.58019 457.42773 165.36133 457.42773 z " transform="scale(0.26458333)"/>
    <path id="path975" style="fill:#ffffff;stroke-width:0.999999" d="M 346.02148 357.22852 C 344.96567 357.26222 344.01996 357.59725 343.17578 358.23047 C 342.0051 359.10859 340.96983 360.66763 340.875 361.69531 C 340.64327 364.20673 343.6109 365.59104 345.0918 363.66211 C 346.13901 362.29779 346.54941 362.3547 349.61719 364.29492 C 355.49051 368.13085 359.55965 375.03796 362.67188 381.69141 C 364.04331 385.67431 364.02338 385.99965 362.36133 386.73828 C 361.38395 387.17262 360.50283 388.40257 360.4043 389.4707 C 360.26931 390.93372 360.91305 391.47603 363.01367 391.66992 C 369.01565 392.2237 370.37838 386.71909 366.53711 377.43359 C 362.57187 368.10834 356.33256 360.21309 347.11328 357.29492 C 346.73656 357.23909 346.37342 357.21728 346.02148 357.22852 z M 325.11914 369.5 C 324.26315 369.53645 323.46402 369.78633 322.7168 370.25 C 321.47332 371.02161 320.30606 372.48467 320.12109 373.5 C 319.66907 375.98124 322.5034 377.62108 324.14844 375.83008 C 325.31175 374.5633 325.7166 374.65649 328.60156 376.85938 C 334.1142 381.1977 337.55815 388.43621 340.07227 395.33789 C 341.08758 399.42613 341.03901 399.74851 339.31836 400.33789 C 338.30653 400.68447 337.32113 401.83144 337.12891 402.88672 C 336.86559 404.33216 337.45977 404.92857 339.53516 405.30664 C 345.46503 406.38691 347.30537 401.02326 344.29688 391.43555 C 341.16839 381.79726 335.64908 373.38485 326.72266 369.66602 C 326.16714 369.53282 325.63273 369.47813 325.11914 369.5 z M 303.19141 382.03711 C 302.13609 382.08376 301.19571 382.43067 300.35938 383.07422 C 299.19955 383.96664 298.18181 385.53766 298.09961 386.56641 C 297.89872 389.08047 300.88468 390.42933 302.3418 388.48242 C 303.37219 387.10535 303.78364 387.15613 306.875 389.05859 C 312.79496 392.82213 316.94894 399.67823 320.14258 406.29297 C 321.5628 410.25875 321.54543 410.5867 319.89258 411.3457 C 318.9206 411.79199 318.05612 413.03233 317.9707 414.10156 C 317.85369 415.56613 318.50457 416.09939 320.60742 416.26758 C 326.61574 416.74765 327.91 411.22598 323.95508 401.98828 C 319.87569 392.71238 313.53955 384.89463 304.28516 382.08984 C 303.90777 382.03864 303.54318 382.02156 303.19141 382.03711 z M 283.79883 396.57422 C 282.27778 396.49031 281.00612 396.92306 279.96289 397.86719 C 278.87783 398.84918 277.99023 400.49726 277.99023 401.5293 C 277.99023 404.05138 281.07369 405.15639 282.37109 403.09961 C 283.28853 401.64472 283.70248 401.66431 286.93555 403.31445 C 293.13647 406.59452 297.82283 413.09821 301.5332 419.4375 C 303.26478 423.27758 303.27465 423.60396 301.6875 424.49219 C 300.75417 425.01452 299.99023 426.31991 299.99023 427.39258 C 299.99023 428.86195 300.68146 429.3418 302.79102 429.3418 C 308.81849 429.3418 309.66839 423.7351 304.99023 414.8418 C 300.18495 405.9203 293.24723 398.633 283.79883 396.57422 z M 262.83789 411.86523 C 261.31464 411.88315 260.07546 412.40037 259.09766 413.41211 C 258.08065 414.46441 257.30407 416.16753 257.37305 417.19727 C 257.54159 419.71371 260.69256 420.60961 261.84961 418.4707 C 262.66777 416.95787 263.08185 416.95046 266.41797 418.38086 C 272.82423 421.23916 277.93482 427.41501 282.06055 433.49219 C 284.04488 437.20795 284.07697 437.53308 282.55273 438.52539 C 281.65639 439.10891 280.98104 440.46295 281.05273 441.5332 C 281.15093 442.99913 281.87172 443.43199 283.97656 443.29102 C 289.99055 442.88819 290.46516 437.23656 285.20312 428.67578 C 279.81237 420.09535 272.40276 413.28796 262.83789 411.86523 z M 245.25586 425.31055 C 243.7326 425.32846 242.49343 425.84568 241.51562 426.85742 C 240.49862 427.90972 239.72204 429.61285 239.79102 430.64258 C 239.95956 433.15903 243.11053 434.05493 244.26758 431.91602 C 245.08574 430.40318 245.49982 430.39577 248.83594 431.82617 C 255.2422 434.68448 260.35279 440.86032 264.47852 446.9375 C 266.46285 450.65327 266.49494 450.97839 264.9707 451.9707 C 264.07436 452.55422 263.39901 453.90827 263.4707 454.97852 C 263.5689 456.44444 264.29165 456.8773 266.39648 456.73633 C 272.41048 456.33351 272.88313 450.68187 267.62109 442.12109 C 262.23034 433.54066 254.82072 426.73327 245.25586 425.31055 z M 229.93555 438.46289 C 228.4145 438.37899 227.14284 438.81173 226.09961 439.75586 C 225.01455 440.73786 224.12695 442.38593 224.12695 443.41797 C 224.12695 445.94005 227.21041 447.04506 228.50781 444.98828 C 229.42525 443.53339 229.8392 443.55298 233.07227 445.20312 C 239.27319 448.48319 243.95955 454.98688 247.66992 461.32617 C 249.4015 465.16625 249.41137 465.49263 247.82422 466.38086 C 246.89089 466.90319 246.12695 468.20858 246.12695 469.28125 C 246.12695 470.75062 246.81818 471.23047 248.92773 471.23047 C 254.9552 471.23047 255.80511 465.62377 251.12695 456.73047 C 246.32167 447.80897 239.38395 440.52167 229.93555 438.46289 z " transform="scale(0.26458333)"/>
  </g>
</svg>